<mxfile host="app.diagrams.net" modified="2021-07-31T03:50:53.583Z" agent="5.0 (Macintosh; Intel Mac OS X 10_15_7) AppleWebKit/537.36 (KHTML, like Gecko) Chrome/92.0.4515.107 Safari/537.36" etag="DTkK4UvyoiLxRM33eld7" version="14.9.3" type="github">
  <diagram id="viiOLJKdZr-pi-Qf0GT_" name="第 1 页">
    <mxGraphModel dx="854" dy="531" grid="1" gridSize="10" guides="1" tooltips="1" connect="1" arrows="1" fold="1" page="1" pageScale="1" pageWidth="827" pageHeight="1169" math="0" shadow="0">
      <root>
        <mxCell id="0" />
        <mxCell id="1" parent="0" />
        <mxCell id="PRJRhvisvIxiCYf8xERW-6" value="" style="rounded=1;whiteSpace=wrap;html=1;strokeWidth=2;fillWeight=4;hachureGap=8;hachureAngle=45;sketch=1;shadow=0;fillColor=#FFE6CC;" vertex="1" parent="1">
          <mxGeometry x="35" y="240" width="120" height="60" as="geometry" />
        </mxCell>
      </root>
    </mxGraphModel>
  </diagram>
</mxfile>
